<svg xmlns="http://www.w3.org/2000/svg" viewBox="0 0 292.5 52.6"><defs><style>.cls-1{fill:none;stroke:#1c2628;stroke-miterlimit:10;stroke-width:3px;}.cls-2{fill:#1c2628;}</style></defs><title>LogoForAnimation</title><g id="Layer_2" data-name="Layer 2"><g id="Layer_1-2" data-name="Layer 1"><path class="cls-1" d="M1.12,16.45C12,4.22,23.62-.62,34.43,2.35c9.3,2.55,15.14,10.91,20.68,18.08C59,25.5,62.9,29.81,68,32.8,75,36.9,84.22,37,92.22,37l134.48-.06"/><path class="cls-2" d="M86.22,1.77l15,0a10.89,10.89,0,0,1,4.26.77,7.16,7.16,0,0,1,2.95,2.17,5,5,0,0,1,1.07,3.14,4.93,4.93,0,0,1-.89,2.88,4.27,4.27,0,0,1-2.29,1.72,4.49,4.49,0,0,1,2.63,1.76A5.05,5.05,0,0,1,110,17.33a5.15,5.15,0,0,1-1.06,3.2A6.85,6.85,0,0,1,106,22.71a11,11,0,0,1-4.25.78l-15.44,0Zm13.12,8.75a3.24,3.24,0,0,0,2.06-.61,1.87,1.87,0,0,0,.79-1.55,1.79,1.79,0,0,0-.8-1.52,3.42,3.42,0,0,0-2.06-.57H93.49v4.26ZM99.69,19a3.49,3.49,0,0,0,2.17-.63,1.88,1.88,0,0,0,.83-1.6,2,2,0,0,0-.84-1.67,3.49,3.49,0,0,0-2.17-.63l-6.17,0V19Z"/><path class="cls-2" d="M121.29,1.69l7.26,0,.06,21.76h-7.27Z"/><path class="cls-2" d="M140.77,1.64l19.24,0V6.64l-12.22,0v3.46l11,0v4.34l-11,0v3.86l12.52,0v5l-19.54,0Z"/><path class="cls-2" d="M171.62,1.57l7.26,0,0,16,10.61,0v5.71l-17.87,0Z"/><path class="cls-2" d="M206.36,22.37a11.35,11.35,0,0,1-5-4,10.36,10.36,0,0,1-1.77-6,10.37,10.37,0,0,1,1.74-6,11.35,11.35,0,0,1,5-4,19.94,19.94,0,0,1,14.73,0,11.44,11.44,0,0,1,5,4,10.44,10.44,0,0,1,1.78,6,10.37,10.37,0,0,1-1.75,6,11.49,11.49,0,0,1-4.94,4,19.87,19.87,0,0,1-14.73,0Zm12.3-5.8a5.27,5.27,0,0,0,1.86-4.24,5.29,5.29,0,0,0-1.88-4.25,8.54,8.54,0,0,0-9.9,0,5.27,5.27,0,0,0-1.87,4.26,5.23,5.23,0,0,0,1.89,4.23,8.59,8.59,0,0,0,9.9,0Z"/><path class="cls-2" d="M279.75,40.6a6,6,0,0,0,1.9-4.91A6,6,0,0,0,279.3,31a9.71,9.71,0,0,0-11.24.53,6,6,0,0,0-1.91,4.93,5.93,5.93,0,0,0,2.36,4.72,8.6,8.6,0,0,0,5.72,1.51A8.42,8.42,0,0,0,279.75,40.6Z"/><path class="cls-1" d="M273.39,51.1a18,18,0,0,1-11.07-3.38,13.74,13.74,0,0,1-5.51-10.84,13.84,13.84,0,0,1,4.45-11.33c3-2.78,7-4.31,11.95-4.54s9.06.9,12.31,3.39A13.87,13.87,0,0,1,291,35.26a13.78,13.78,0,0,1-4.41,11.3c-3,2.76-7,4.27-11.93,4.51l-1.19,0h-.06Z"/></g></g></svg>