<svg xmlns="http://www.w3.org/2000/svg" viewBox="0 0 141.56 22.85"><defs><style>.cls-1{fill:#1c2628;}</style></defs><title>Asset 1</title><g id="Layer_2" data-name="Layer 2"><g id="Capa_1" data-name="Capa 1"><path class="cls-1" d="M0,.85l15,0a10.71,10.71,0,0,1,4.26.78,7,7,0,0,1,2.95,2.16,5,5,0,0,1,1.07,3.15,4.83,4.83,0,0,1-.89,2.87,4.18,4.18,0,0,1-2.29,1.72,4.48,4.48,0,0,1,2.64,1.76,5.33,5.33,0,0,1,0,6.35,6.94,6.94,0,0,1-3,2.18,11,11,0,0,1-4.25.78l-15.44,0ZM13.12,9.6A3.29,3.29,0,0,0,15.19,9,1.87,1.87,0,0,0,16,7.44a1.79,1.79,0,0,0-.79-1.52,3.47,3.47,0,0,0-2.07-.57H7.27V9.62Zm.35,8.45a3.53,3.53,0,0,0,2.18-.63,1.92,1.92,0,0,0,.83-1.59,2,2,0,0,0-.84-1.67,3.47,3.47,0,0,0-2.18-.64l-6.17,0,0,4.53Z"/><path class="cls-1" d="M35.07.77l7.27,0,0,21.76-7.26,0Z"/><path class="cls-1" d="M54.55.72l19.24,0v5l-12.21,0V9.21l11,0v4.34l-11,0v3.86l12.53,0v5l-19.54.05Z"/><path class="cls-1" d="M85.4.65l7.27,0,0,16.05,10.6,0,0,5.71-17.87.05Z"/><path class="cls-1" d="M120.15,21.46a11.44,11.44,0,0,1-5-4,10.44,10.44,0,0,1-1.78-6,10.37,10.37,0,0,1,1.75-6,11.37,11.37,0,0,1,5-4A18.1,18.1,0,0,1,127.46,0a17.9,17.9,0,0,1,7.36,1.4,11.38,11.38,0,0,1,5,4,10.36,10.36,0,0,1,1.77,6,10.37,10.37,0,0,1-1.74,6,11.45,11.45,0,0,1-4.95,4,18,18,0,0,1-7.35,1.43A18.15,18.15,0,0,1,120.15,21.46Zm12.29-5.81a5.25,5.25,0,0,0,1.86-4.24,5.27,5.27,0,0,0-1.88-4.25,8.53,8.53,0,0,0-9.89,0,5.28,5.28,0,0,0-1.88,4.26,5.25,5.25,0,0,0,1.9,4.24,7.53,7.53,0,0,0,5,1.55A7.44,7.44,0,0,0,132.44,15.65Z"/></g></g></svg>