<svg xmlns="http://www.w3.org/2000/svg" viewBox="0 0 15.79 514.96"><defs><style>.cls-1{fill:#1c2628;}</style></defs><title>SloganVertical</title><g id="Layer_2" data-name="Layer 2"><g id="Layer_1-2" data-name="Layer 1"><path class="cls-1" d="M1.21,515v-2H5.68v-6.9H1.19v-1.95l11,0v1.94h-5l0,6.9h5v1.95Z"/><path class="cls-1" d="M1.18,498.77v-1.95l11,0v1.94Z"/><path class="cls-1" d="M12.11,488.71a6.09,6.09,0,0,1-1.23,2.07A4,4,0,0,1,9.1,492l-.72-1.54a2.77,2.77,0,0,0,1.35-.83,4.32,4.32,0,0,0,.93-1.56,5.88,5.88,0,0,0,.33-2,4.67,4.67,0,0,0-.24-1.57,2.29,2.29,0,0,0-.65-1,1.36,1.36,0,0,0-.91-.37,1.05,1.05,0,0,0-.89.45,3.33,3.33,0,0,0-.49,1.11c-.11.44-.24,1.06-.37,1.86A18.89,18.89,0,0,1,6.93,489,4,4,0,0,1,6,490.66a2.34,2.34,0,0,1-1.78.67,2.88,2.88,0,0,1-1.81-.58,3.75,3.75,0,0,1-1.22-1.62,6.63,6.63,0,0,1,.3-5.42,3.84,3.84,0,0,1,2-1.78l.79,1.41a2.76,2.76,0,0,0-1.39,1.26,4.53,4.53,0,0,0-.31,3.52,2.39,2.39,0,0,0,.6,1,1.28,1.28,0,0,0,.87.34,1,1,0,0,0,.87-.44,2.82,2.82,0,0,0,.48-1.08c.1-.44.22-1,.36-1.84a18.79,18.79,0,0,1,.52-2.53,4.05,4.05,0,0,1,.94-1.69A2.3,2.3,0,0,1,9,481.15a3,3,0,0,1,1.85.62,4,4,0,0,1,1.27,1.74,6.85,6.85,0,0,1,.46,2.57A7.76,7.76,0,0,1,12.11,488.71Z"/><path class="cls-1" d="M2.73,473.22v4.27H1.12L1.1,467H2.72v4.27l9.41,0v1.93Z"/><path class="cls-1" d="M11.74,460.07a5.75,5.75,0,0,1-2.08,2.42,5.48,5.48,0,0,1-3.06.87,5.45,5.45,0,0,1-3-.85,5.77,5.77,0,0,1-2.09-2.42,8.71,8.71,0,0,1,0-7.07,5.84,5.84,0,0,1,2.08-2.43,5.47,5.47,0,0,1,3.05-.87,5.52,5.52,0,0,1,3.06.86,5.77,5.77,0,0,1,2.09,2.4,8.23,8.23,0,0,1,.76,3.55A8.15,8.15,0,0,1,11.74,460.07ZM10.31,454a4.32,4.32,0,0,0-1.53-1.74,3.94,3.94,0,0,0-2.2-.61,4.07,4.07,0,0,0-2.21.62A4.18,4.18,0,0,0,2.87,454a6.23,6.23,0,0,0,0,5.05A4.1,4.1,0,0,0,4.4,460.8a4,4,0,0,0,2.2.62,4,4,0,0,0,2.2-.63,4.23,4.23,0,0,0,1.52-1.74,5.72,5.72,0,0,0,.54-2.52A5.82,5.82,0,0,0,10.31,454Z"/><path class="cls-1" d="M12,436a2.24,2.24,0,0,1-1,.74l-2.11.82a2,2,0,0,0-.85.66,1.48,1.48,0,0,0-.33.92v3.5h4.38v2l-11,0,0-6.71a5.08,5.08,0,0,1,.42-2.14,3.37,3.37,0,0,1,1.16-1.47,2.82,2.82,0,0,1,1.7-.54,2.76,2.76,0,0,1,2,.82,3.56,3.56,0,0,1,1,2.11,2.33,2.33,0,0,1,.54-.6,3,3,0,0,1,.77-.42l1.72-.66c.4-.15.59-.37.59-.67a.9.9,0,0,0-.18-.51,1.51,1.51,0,0,0-.51-.42l1-.72a3,3,0,0,1,.79.94,2.43,2.43,0,0,1,.3,1.17A1.88,1.88,0,0,1,12,436Zm-5.81,2.11a2.81,2.81,0,0,0-.51-1.74,1.52,1.52,0,0,0-1.27-.69,1.57,1.57,0,0,0-1.32.69,2.88,2.88,0,0,0-.5,1.75v4.53h3.6Z"/><path class="cls-1" d="M1,428.17v-1.95l11,0v1.95Z"/><path class="cls-1" d="M1,416.6v-2.29l11-5v2l-2.44,1.1v5.94L12,419.5v2.06ZM8,413.05l-5.43,2.41,5.44,2.38Z"/><path class="cls-1" d="M11.9,402.36a6,6,0,0,1-1.22,2.07,4.1,4.1,0,0,1-1.79,1.17l-.71-1.54a2.79,2.79,0,0,0,1.34-.83,4.36,4.36,0,0,0,.93-1.55,5.94,5.94,0,0,0,.33-2,4.71,4.71,0,0,0-.24-1.57,2.43,2.43,0,0,0-.64-1,1.37,1.37,0,0,0-.91-.36,1.05,1.05,0,0,0-.89.44,3.34,3.34,0,0,0-.5,1.11c-.11.44-.24,1.06-.37,1.86a19.08,19.08,0,0,1-.51,2.54,3.88,3.88,0,0,1-.91,1.64A2.38,2.38,0,0,1,4,405a3,3,0,0,1-1.81-.58A3.78,3.78,0,0,1,1,402.78a6.12,6.12,0,0,1-.43-2.38,5.89,5.89,0,0,1,.74-3,3.8,3.8,0,0,1,1.94-1.79l.8,1.41a2.72,2.72,0,0,0-1.39,1.26,4.16,4.16,0,0,0-.54,2.13,4.27,4.27,0,0,0,.22,1.39,2.39,2.39,0,0,0,.6,1,1.28,1.28,0,0,0,.87.34,1,1,0,0,0,.87-.44,2.82,2.82,0,0,0,.48-1.08c.11-.43.22-1,.36-1.83A18.65,18.65,0,0,1,6,397.18,4.05,4.05,0,0,1,7,395.49a2.31,2.31,0,0,1,1.78-.69,3,3,0,0,1,1.85.62,3.91,3.91,0,0,1,1.27,1.74,6.89,6.89,0,0,1,.46,2.57A7.72,7.72,0,0,1,11.9,402.36Z"/><path class="cls-1" d="M13.93,369.66a2.52,2.52,0,0,0-.95-.82l.86-1.31a3,3,0,0,1,1.4,1.28,4,4,0,0,1,.55,2.08,3.78,3.78,0,0,1-.36,1.66,2.79,2.79,0,0,1-1,1.15,2.65,2.65,0,0,1-1.46.42h-.72a7.43,7.43,0,0,1-1,3.08A5.5,5.5,0,0,1,6.4,380a5.54,5.54,0,0,1-3.05-.86,5.7,5.7,0,0,1-2.09-2.42A7.86,7.86,0,0,1,.5,373.2a8.07,8.07,0,0,1,.74-3.54,5.84,5.84,0,0,1,2.08-2.43,5.55,5.55,0,0,1,3.05-.87,5.65,5.65,0,0,1,2.87.74,5.69,5.69,0,0,1,2.06,2.1,7.6,7.6,0,0,1,.94,3.13h.47a1.58,1.58,0,0,0,1.15-.42,1.44,1.44,0,0,0,.44-1.1A2.09,2.09,0,0,0,13.93,369.66ZM8.6,377.43a4.17,4.17,0,0,0,1.52-1.74,5.55,5.55,0,0,0,.53-2.52,5.67,5.67,0,0,0-.54-2.51,4.23,4.23,0,0,0-1.53-1.73,4,4,0,0,0-2.21-.62,4,4,0,0,0-2.2.63,4,4,0,0,0-1.5,1.73,5.55,5.55,0,0,0-.53,2.52,5.7,5.7,0,0,0,.54,2.53,4.15,4.15,0,0,0,1.51,1.72,4,4,0,0,0,2.21.62A4,4,0,0,0,8.6,377.43Z"/><path class="cls-1" d="M11.62,358.73a4.77,4.77,0,0,1-1.77,1.95,5.09,5.09,0,0,1-2.71.71l-6.29,0v-2l6.28,0A3.64,3.64,0,0,0,8.94,359a3.11,3.11,0,0,0,1.23-1.26,3.72,3.72,0,0,0,.44-1.85,3.85,3.85,0,0,0-.42-1.82A3.08,3.08,0,0,0,9,352.8a3.62,3.62,0,0,0-1.87-.44H.82v-1.93l6.29,0a5.09,5.09,0,0,1,2.71.7,4.64,4.64,0,0,1,1.78,1.94,6.79,6.79,0,0,1,0,5.67Z"/><path class="cls-1" d="M.81,345.19l0-9.25H2.36l0,7.37H5.43l0-6.74H6.87l0,6.74h3.37l0-7.52h1.57l0,9.41Z"/><path class="cls-1" d="M.75,320.67l0-9.25H2.3v7.37H5.37l0-6.74H6.82v6.74H10.2l0-7.52h1.57l0,9.41Z"/><path class="cls-1" d="M.71,306.37v-1.95l9.39,0v-6.08h1.63l0,8Z"/><path class="cls-1" d="M1,287.79v-2.72l9.1-4.32L.92,276.47v-2.74l11,0v1.88l-8.68,0L12,279.74v2L3.29,285.9l8.68,0v1.89Z"/><path class="cls-1" d="M11.67,265.8a4.64,4.64,0,0,1-1.77,1.95,5.09,5.09,0,0,1-2.71.71l-6.29,0v-2l6.27,0A3.59,3.59,0,0,0,9,266.06a3.2,3.2,0,0,0,1.24-1.26,4.11,4.11,0,0,0,0-3.68A3.06,3.06,0,0,0,9,259.87a3.58,3.58,0,0,0-1.86-.44H.88v-1.93h6.3a5,5,0,0,1,2.71.69,4.64,4.64,0,0,1,1.78,1.94,6.74,6.74,0,0,1,0,5.67Z"/><path class="cls-1" d="M.86,252.26v-2.43l8.84-6.6-8.85,0v-1.9l11,0v2.43L3,250.35l8.84,0v1.9Z"/><path class="cls-1" d="M.82,236v-5.33a7.85,7.85,0,0,1,.68-3.38A5.14,5.14,0,0,1,3.42,225a5.27,5.27,0,0,1,2.89-.8A5.21,5.21,0,0,1,9.2,225a5.14,5.14,0,0,1,1.94,2.24,7.92,7.92,0,0,1,.7,3.37v5.33Zm9.43-5.29a5.66,5.66,0,0,0-.48-2.41,3.71,3.71,0,0,0-1.37-1.6,3.78,3.78,0,0,0-2.09-.56,3.75,3.75,0,0,0-2.08.57,3.65,3.65,0,0,0-1.36,1.61,5.52,5.52,0,0,0-.47,2.41v3.35l7.86,0Z"/><path class="cls-1" d="M11.43,216.07a5.81,5.81,0,0,1-2.08,2.42,5.48,5.48,0,0,1-3.06.87,5.46,5.46,0,0,1-3-.86,5.8,5.8,0,0,1-2.09-2.41,8.73,8.73,0,0,1,0-7.08,5.87,5.87,0,0,1,2.08-2.42,5.47,5.47,0,0,1,3.05-.87,5.49,5.49,0,0,1,3.06.85A5.86,5.86,0,0,1,11.41,209a8,8,0,0,1,.76,3.54A8.19,8.19,0,0,1,11.43,216.07ZM10,210a4.23,4.23,0,0,0-1.53-1.73,4,4,0,0,0-2.2-.62,3.93,3.93,0,0,0-2.2.63A4.14,4.14,0,0,0,2.56,210a6.2,6.2,0,0,0,0,5,4.2,4.2,0,0,0,1.52,1.73,3.94,3.94,0,0,0,2.2.61,4,4,0,0,0,2.2-.63A4.14,4.14,0,0,0,10,215.05a5.75,5.75,0,0,0,.54-2.52A5.86,5.86,0,0,0,10,210Z"/><path class="cls-1" d="M.71,196.4v-5.33a7.77,7.77,0,0,1,.68-3.37,5.17,5.17,0,0,1,1.93-2.26,5.27,5.27,0,0,1,2.89-.8,5.29,5.29,0,0,1,2.89.79A5.19,5.19,0,0,1,11,187.67a8,8,0,0,1,.7,3.38v5.32Zm9.43-5.29a5.7,5.7,0,0,0-.48-2.41,3.77,3.77,0,0,0-1.37-1.6,3.86,3.86,0,0,0-2.09-.56,3.75,3.75,0,0,0-2.08.57,3.64,3.64,0,0,0-1.36,1.61,5.7,5.7,0,0,0-.47,2.41v3.35l7.85,0Z"/><path class="cls-1" d="M.67,179.53l0-9.25H2.22l0,7.37H5.29l0-6.74H6.74l0,6.74h3.36l0-7.52h1.58l0,9.41Z"/><path class="cls-1" d="M.64,165.23l0-6.81A4.42,4.42,0,0,1,1,156.54a3.1,3.1,0,0,1,1.08-1.31,2.74,2.74,0,0,1,1.56-.48,2.51,2.51,0,0,1,1.48.47A2.14,2.14,0,0,1,6,156.4a2.43,2.43,0,0,1,.92-1.4,2.68,2.68,0,0,1,1.63-.56,2.76,2.76,0,0,1,1.6.5,3.34,3.34,0,0,1,1.11,1.38,4.94,4.94,0,0,1,.4,2v6.87Zm4.62-6.49a2.33,2.33,0,0,0-.44-1.48,1.35,1.35,0,0,0-1.12-.58,1.38,1.38,0,0,0-1.13.58,2.42,2.42,0,0,0-.44,1.49v4.53H5.27Zm4.88,0A2.69,2.69,0,0,0,9.65,157a1.48,1.48,0,0,0-1.24-.66,1.46,1.46,0,0,0-1.22.66,2.78,2.78,0,0,0-.48,1.68v4.55h3.43Z"/><path class="cls-1" d="M.6,149.53l0-9.26H2.15l0,7.37H5.22l0-6.74H6.67v6.75h3.37l0-7.53H11.6l0,9.41Z"/><path class="cls-1" d="M.54,125l0-9.26H2.09l0,7.37H5.16l0-6.74H6.61v6.75H10l0-7.53h1.58l0,9.41Z"/><path class="cls-1" d="M11.46,108a6.06,6.06,0,0,1-1.23,2.07,4.07,4.07,0,0,1-1.78,1.17l-.72-1.54a2.83,2.83,0,0,0,1.35-.82A4.83,4.83,0,0,0,10,107.3a5.94,5.94,0,0,0,.33-2,4.93,4.93,0,0,0-.24-1.57,2.38,2.38,0,0,0-.65-1,1.32,1.32,0,0,0-.91-.36,1.05,1.05,0,0,0-.89.44,3.14,3.14,0,0,0-.49,1.11c-.12.44-.24,1.06-.38,1.86a20.48,20.48,0,0,1-.5,2.53,3.93,3.93,0,0,1-.92,1.65,2.34,2.34,0,0,1-1.77.68A3.06,3.06,0,0,1,1.77,110,3.76,3.76,0,0,1,.56,108.4,6.63,6.63,0,0,1,.86,103,3.9,3.9,0,0,1,2.8,101.2l.8,1.41a2.76,2.76,0,0,0-1.39,1.26A4.16,4.16,0,0,0,1.68,106a4,4,0,0,0,.22,1.39,2.39,2.39,0,0,0,.6,1,1.26,1.26,0,0,0,.87.34,1,1,0,0,0,.87-.44,3,3,0,0,0,.48-1.08c.1-.43.22-1,.35-1.83a18.81,18.81,0,0,1,.53-2.54,4,4,0,0,1,.93-1.69,2.33,2.33,0,0,1,1.78-.69,3,3,0,0,1,1.86.62,4.13,4.13,0,0,1,1.27,1.74,6.89,6.89,0,0,1,.45,2.57A7.52,7.52,0,0,1,11.46,108Z"/><path class="cls-1" d="M11.11,92.55A6,6,0,0,1,9,95a5.52,5.52,0,0,1-3,.88,5.79,5.79,0,0,1-3-.81,5.76,5.76,0,0,1-2.1-2.27A7,7,0,0,1,.08,89.5,6.68,6.68,0,0,1,.54,87a5.67,5.67,0,0,1,1.28-2,4.73,4.73,0,0,1,1.86-1.2l.5,1.77A3.28,3.28,0,0,0,2.4,87a4.45,4.45,0,0,0-.68,2.48,4.63,4.63,0,0,0,.55,2.28,4,4,0,0,0,1.51,1.57A4.36,4.36,0,0,0,6,93.9a3.89,3.89,0,0,0,2.18-.63,4.26,4.26,0,0,0,1.53-1.72,5.45,5.45,0,0,0,.54-2.49,5,5,0,0,0-.4-2,4.24,4.24,0,0,0-1.11-1.55,3.47,3.47,0,0,0-1.6-.83l.44-1.82A4.76,4.76,0,0,1,9.78,84a6,6,0,0,1,1.52,2.21,7.29,7.29,0,0,1,.55,2.86A7.73,7.73,0,0,1,11.11,92.55Z"/><path class="cls-1" d="M11.2,75.41a4.71,4.71,0,0,1-1.77,2,5.09,5.09,0,0,1-2.71.71l-6.29,0v-2l6.28,0a3.64,3.64,0,0,0,1.82-.45,3.26,3.26,0,0,0,1.24-1.26,3.8,3.8,0,0,0,.44-1.85,4,4,0,0,0-.43-1.83,3.06,3.06,0,0,0-1.22-1.25A3.62,3.62,0,0,0,6.68,69H.4V67.12l6.29,0a5.06,5.06,0,0,1,2.71.7,4.52,4.52,0,0,1,1.78,1.94,6.69,6.69,0,0,1,0,5.67Z"/><path class="cls-1" d="M11,58.84a6,6,0,0,1-2.09,2.42,5.55,5.55,0,0,1-3,.88,5.79,5.79,0,0,1-3-.81,5.8,5.8,0,0,1-2.1-2.26A7,7,0,0,1,0,55.8a6.89,6.89,0,0,1,.45-2.5,6,6,0,0,1,1.28-2,4.83,4.83,0,0,1,1.87-1.2l.5,1.77a3.31,3.31,0,0,0-1.79,1.45,4.47,4.47,0,0,0-.67,2.47,4.74,4.74,0,0,0,.54,2.28A4,4,0,0,0,3.7,59.63a4.36,4.36,0,0,0,2.2.56,3.89,3.89,0,0,0,2.18-.63,4.33,4.33,0,0,0,1.53-1.72,5.56,5.56,0,0,0,.54-2.49,4.94,4.94,0,0,0-.4-2,4.31,4.31,0,0,0-1.11-1.56A3.47,3.47,0,0,0,7,51l.43-1.82A4.75,4.75,0,0,1,9.7,50.29a6,6,0,0,1,1.52,2.21,7.29,7.29,0,0,1,.55,2.86A7.73,7.73,0,0,1,11,58.84Z"/><path class="cls-1" d="M.35,44.24v-2H4.81l0-6.9H.32v-2l11,0v1.94h-5l0,6.9h5v2Z"/><path class="cls-1" d="M.3,23.81V21.52l11-5v2L8.87,19.7v5.93l2.45,1.09v2.05Zm7.06-3.55L1.93,22.67l5.44,2.39Z"/><path class="cls-1" d="M11.2,3.33a2.4,2.4,0,0,1-1,.74l-2.11.81a2.06,2.06,0,0,0-.85.66,1.43,1.43,0,0,0-.32.92V10h4.38v2l-11,0,0-6.7A5.25,5.25,0,0,1,.67,3.08,3.5,3.5,0,0,1,1.83,1.61a2.9,2.9,0,0,1,1.7-.53,2.72,2.72,0,0,1,2,.81A3.53,3.53,0,0,1,6.54,4a2.19,2.19,0,0,1,.55-.59A2.83,2.83,0,0,1,7.85,3l1.73-.66c.39-.14.59-.37.59-.67a.89.89,0,0,0-.19-.5,1.61,1.61,0,0,0-.5-.43l1-.72a2.86,2.86,0,0,1,.79.94,2.44,2.44,0,0,1,.3,1.18A1.9,1.9,0,0,1,11.2,3.33ZM5.39,5.43a2.85,2.85,0,0,0-.51-1.74A1.51,1.51,0,0,0,3.61,3a1.56,1.56,0,0,0-1.32.68A2.83,2.83,0,0,0,1.8,5.44V10H5.4Z"/></g></g></svg>